# xmcd CD Database Entry
#
# Track frame offsets:
# 150
# 22288
# 45838
# 82063
# 97745
# 111538
# 132913
# 148888
# 166438
# 189688
#
# Disc length: 2551 seconds
#
# Revision: 1
# Processed by: cddbd v1.4PL0 Copyright (c) Steve Scherf et al.
# Submitted via: tcd 2.0b
#
DISCID=8d09f50a
DTITLE=Roomful of Blues - Live at Lupo's Heartbreak Hotel
DYEAR=1900
DGENRE=
TTITLE0=Gator's Groove - Welcome to Lupo's
TTITLE1=Coconut Milk
TTITLE2=Three Hours Past Midnight
TTITLE3=Three Hundred Pounds
TTITLE4=House of Joy
TTITLE5=Pink Champagne
TTITLE6=Please Don't Leave
TTITLE7=That's My Life
TTITLE8=Please Don't Leave Me
TTITLE9=Zydeco Boogaloo
EXTD=
EXTT0=
EXTT1=
EXTT2=
EXTT3=
EXTT4=
EXTT5=
EXTT6=
EXTT7=
EXTT8=
EXTT9=
PLAYORDER=
